<svg width="70" height="70" viewBox="0 0 70 70" fill="none" xmlns="http://www.w3.org/2000/svg">
<g id="fluent-mdl2:join-online-meeting" clip-path="url(#clip0_139_462)">
<path id="Vector" d="M31.377 64.292C31.1491 65.1579 30.9782 66.0352 30.8643 66.9238C30.7503 67.8125 30.6706 68.724 30.625 69.6582C27.7083 69.3164 24.9284 68.6328 22.2852 67.6074C19.6419 66.582 17.1924 65.2718 14.9365 63.6768C12.6807 62.0817 10.6299 60.236 8.78418 58.1396C6.93848 56.0433 5.36621 53.7646 4.06738 51.3037C2.76855 48.8428 1.76595 46.2451 1.05957 43.5107C0.35319 40.7764 0 37.9395 0 35C0 31.7871 0.410156 28.6882 1.23047 25.7031C2.05078 22.7181 3.22428 19.9268 4.75098 17.3291C6.27767 14.7314 8.10059 12.373 10.2197 10.2539C12.3389 8.13477 14.7087 6.31185 17.3291 4.78516C19.9495 3.25846 22.7295 2.08496 25.6689 1.26465C28.6084 0.444336 31.7188 0.0227865 35 0C38.2129 0 41.3005 0.410156 44.2627 1.23047C47.2249 2.05078 50.0163 3.23568 52.6367 4.78516C55.2572 6.33464 57.6156 8.15755 59.7119 10.2539C61.8083 12.3503 63.6426 14.7201 65.2149 17.3633C66.7871 20.0065 67.9606 22.7865 68.7354 25.7031C69.5101 28.6198 69.9316 31.7188 70 35H67.5732C67.2542 34.4759 66.9238 33.9632 66.582 33.4619C66.2402 32.9606 65.8415 32.4821 65.3857 32.0264C65.249 30.0439 64.8958 28.1185 64.3262 26.25H22.4561C22.2738 27.7083 22.137 29.1553 22.0459 30.5908C21.9548 32.0264 21.8978 33.4961 21.875 35C21.875 36.4811 21.9206 37.9395 22.0117 39.375C22.1029 40.8105 22.251 42.2689 22.4561 43.75H35C35 44.4792 35.057 45.2083 35.1709 45.9375C35.2848 46.6667 35.4329 47.3958 35.6152 48.125H23.208C23.4814 49.4238 23.846 50.848 24.3018 52.3975C24.7575 53.9469 25.3272 55.4622 26.0107 56.9434C26.6943 58.4245 27.4805 59.8145 28.3691 61.1133C29.2578 62.4121 30.2604 63.4717 31.377 64.292ZM62.6514 21.875C61.7627 20.0293 60.7145 18.2975 59.5068 16.6797C58.2992 15.0618 56.932 13.5807 55.4053 12.2363C53.8786 10.8919 52.2607 9.69564 50.5518 8.64746C48.8428 7.59928 46.9971 6.74479 45.0147 6.08398C45.835 7.22331 46.5641 8.43099 47.2022 9.70703C47.8402 10.9831 48.4212 12.2933 48.9453 13.6377C49.4694 14.9821 49.9137 16.3493 50.2783 17.7393C50.6429 19.1292 50.9619 20.5078 51.2354 21.875H62.6514ZM35 4.375C33.8607 4.375 32.8125 4.68262 31.8555 5.29785C30.8984 5.91309 30.0098 6.72201 29.1895 7.72461C28.3691 8.72721 27.64 9.85514 27.002 11.1084C26.3639 12.3617 25.7829 13.6491 25.2588 14.9707C24.7347 16.2923 24.3132 17.5456 23.9941 18.7305C23.6751 19.9154 23.4131 20.9635 23.208 21.875H46.792C46.6097 20.9863 46.3477 19.9382 46.0059 18.7305C45.6641 17.5228 45.2425 16.2695 44.7412 14.9707C44.2399 13.6719 43.6703 12.3958 43.0322 11.1426C42.3942 9.88932 41.665 8.75 40.8447 7.72461C40.0244 6.69922 39.1244 5.8903 38.1445 5.29785C37.1647 4.7054 36.1165 4.39779 35 4.375ZM25.0195 6.0498C23.0827 6.71061 21.237 7.55371 19.4824 8.5791C17.7279 9.60449 16.0986 10.8008 14.5947 12.168C13.0908 13.5352 11.7236 15.0277 10.4932 16.6455C9.2627 18.2633 8.21452 20.0065 7.34863 21.875H18.7647C19.0153 20.6217 19.3229 19.2887 19.6875 17.876C20.0521 16.4632 20.5078 15.0505 21.0547 13.6377C21.6016 12.2249 22.194 10.8691 22.832 9.57031C23.4701 8.27148 24.1992 7.09798 25.0195 6.0498ZM4.375 35C4.375 38.0306 4.79655 40.9473 5.63965 43.75H18.0469C17.8646 42.2917 17.7279 40.8447 17.6367 39.4092C17.5456 37.9736 17.5 36.5039 17.5 35C17.5 33.5189 17.5456 32.0605 17.6367 30.625C17.7279 29.1895 17.8646 27.7311 18.0469 26.25H5.63965C4.79655 29.0527 4.375 31.9694 4.375 35ZM7.28027 48.125C8.16895 49.9707 9.21712 51.7025 10.4248 53.3203C11.6325 54.9382 12.9997 56.4307 14.5264 57.7979C16.0531 59.165 17.6937 60.3499 19.4482 61.3525C21.2028 62.3551 23.0485 63.2096 24.9854 63.916C24.165 62.7767 23.4359 61.569 22.7979 60.293C22.1598 59.0169 21.5788 57.7067 21.0547 56.3623C20.5306 55.0179 20.0863 53.6507 19.7217 52.2607C19.3571 50.8708 19.0267 49.4922 18.7305 48.125H7.28027ZM60.2246 54.3115C61.7057 55.0635 63.0501 55.9863 64.2578 57.0801C65.4655 58.1738 66.4909 59.4043 67.334 60.7715C68.1771 62.1387 68.8379 63.597 69.3164 65.1465C69.7949 66.696 70.0228 68.3138 70 70H65.625C65.625 68.1999 65.2832 66.5023 64.5996 64.9072C63.916 63.3122 62.9818 61.9222 61.7969 60.7373C60.612 59.5524 59.2106 58.6068 57.5928 57.9004C55.9749 57.194 54.2774 56.8522 52.5 56.875C50.6771 56.875 48.9795 57.2168 47.4072 57.9004C45.835 58.584 44.445 59.5182 43.2373 60.7031C42.0296 61.888 41.084 63.2894 40.4004 64.9072C39.7168 66.5251 39.375 68.2227 39.375 70H35C35 68.3366 35.2279 66.7301 35.6836 65.1807C36.1393 63.6312 36.7887 62.1615 37.6318 60.7715C38.4749 59.3815 39.5003 58.151 40.708 57.0801C41.9157 56.0091 43.2601 55.0863 44.7412 54.3115C43.0322 53.0811 41.7106 51.543 40.7764 49.6973C39.8421 47.8516 39.375 45.8691 39.375 43.75C39.375 41.9499 39.7168 40.2523 40.4004 38.6572C41.084 37.0622 42.0182 35.6722 43.2031 34.4873C44.388 33.3024 45.778 32.3568 47.3731 31.6504C48.9681 30.944 50.6771 30.6022 52.5 30.625C54.3001 30.625 55.9977 30.9668 57.5928 31.6504C59.1878 32.334 60.5778 33.2682 61.7627 34.4531C62.9476 35.638 63.8932 37.0394 64.5996 38.6572C65.306 40.2751 65.6478 41.9727 65.625 43.75C65.625 45.8464 65.1579 47.8174 64.2236 49.6631C63.2894 51.5088 61.9564 53.0583 60.2246 54.3115ZM52.5 52.5C53.7077 52.5 54.8356 52.2721 55.8838 51.8164C56.932 51.3607 57.8662 50.7341 58.6865 49.9365C59.5068 49.139 60.1335 48.2161 60.5664 47.168C60.9994 46.1198 61.2272 44.9805 61.25 43.75C61.25 42.5423 61.0221 41.4144 60.5664 40.3662C60.1107 39.318 59.4841 38.3838 58.6865 37.5635C57.889 36.7432 56.9662 36.1165 55.918 35.6836C54.8698 35.2507 53.7305 35.0228 52.5 35C51.2923 35 50.1644 35.2279 49.1162 35.6836C48.068 36.1393 47.1338 36.7659 46.3135 37.5635C45.4932 38.361 44.8665 39.2839 44.4336 40.332C44.0007 41.3802 43.7728 42.5195 43.75 43.75C43.75 44.9577 43.9779 46.0856 44.4336 47.1338C44.8893 48.182 45.516 49.1162 46.3135 49.9365C47.111 50.7568 48.0339 51.3835 49.082 51.8164C50.1302 52.2493 51.2695 52.4772 52.5 52.5Z" fill="#0F0400"/>
</g>
<defs>
<clipPath id="clip0_139_462">
<rect width="70" height="70" fill="white"/>
</clipPath>
</defs>
</svg>
