<svg width="70" height="70" viewBox="0 0 70 70" fill="none" xmlns="http://www.w3.org/2000/svg">
<g id="fluent:person-support-16-regular">
<path id="Vector" d="M56.875 42.6562C56.875 40.9157 56.1836 39.2465 54.9529 38.0158C53.7222 36.7851 52.053 36.0937 50.3125 36.0937H19.6875C17.947 36.0937 16.2778 36.7851 15.0471 38.0158C13.8164 39.2465 13.125 40.9157 13.125 42.6562V44.8437C13.125 53.4669 21.2625 62.3437 35 62.3437C48.7375 62.3437 56.875 53.4669 56.875 44.8437V42.6562ZM17.5 42.6562C17.5 42.0761 17.7305 41.5197 18.1407 41.1094C18.5509 40.6992 19.1073 40.4687 19.6875 40.4687H50.3125C50.8927 40.4687 51.4491 40.6992 51.8593 41.1094C52.2695 41.5197 52.5 42.0761 52.5 42.6562V44.8437C52.5 51.135 46.235 57.9687 35 57.9687C23.765 57.9687 17.5 51.135 17.5 44.8437V42.6562ZM47.0312 19.6875C47.0314 17.0937 46.1934 14.5694 44.642 12.4907C43.0907 10.4121 40.9092 8.8904 38.4226 8.15255C35.936 7.4147 33.2776 7.50017 30.8435 8.39623C28.4095 9.29229 26.3302 10.951 24.9156 13.125H17.5C16.9198 13.125 16.3634 13.3554 15.9532 13.7657C15.543 14.1759 15.3125 14.7323 15.3125 15.3125V24.0625C15.3125 24.1325 15.3125 24.1981 15.3213 24.2637H15.3125V28.4375C15.3125 30.178 16.0039 31.8472 17.2346 33.0779C18.4653 34.3086 20.1345 35 21.875 35H23.5681C24.019 34.9997 24.4625 34.8857 24.8577 34.6686C25.2529 34.4515 25.5869 34.1383 25.829 33.758C26.0711 33.3776 26.2133 32.9423 26.2426 32.4924C26.2719 32.0425 26.1873 31.5924 25.9966 31.1838C25.8059 30.7753 25.5153 30.4214 25.1516 30.1549C24.788 29.8884 24.363 29.7179 23.9159 29.6591C23.4689 29.6003 23.0143 29.6552 22.5941 29.8187C22.1739 29.9822 21.8017 30.2489 21.5119 30.5943C21.0019 30.5085 20.5388 30.2447 20.2048 29.8499C19.8709 29.455 19.6876 28.9546 19.6875 28.4375V26.25H20.7812C22.0806 26.25 23.2925 25.8693 24.3119 25.2175C25.5502 27.6134 27.5576 29.5237 30.0118 30.6419C32.4661 31.7601 35.2249 32.0212 37.8454 31.3834C40.4659 30.7455 42.796 29.2457 44.4619 27.1247C46.1277 25.0037 47.0326 22.3845 47.0312 19.6875ZM27.3438 19.6875C27.3438 17.6569 28.1504 15.7095 29.5862 14.2737C31.022 12.8379 32.9694 12.0312 35 12.0312C37.0306 12.0312 38.978 12.8379 40.4138 14.2737C41.8496 15.7095 42.6562 17.6569 42.6562 19.6875C42.6562 21.718 41.8496 23.6654 40.4138 25.1013C38.978 26.5371 37.0306 27.3437 35 27.3437C32.9694 27.3437 31.022 26.5371 29.5862 25.1013C28.1504 23.6654 27.3438 21.718 27.3438 19.6875ZM22.9688 19.6875C22.9688 20.2676 22.7383 20.824 22.328 21.2343C21.9178 21.6445 21.3614 21.875 20.7812 21.875H19.6875V17.5H22.9688V19.6875Z" fill="#0F0400"/>
</g>
</svg>
