<svg width="112" height="19" viewBox="0 0 112 19" fill="none" xmlns="http://www.w3.org/2000/svg">
<g id="Group 6381">
<path id="Icon-color" d="M66.4522 3.87428C65.9112 4.59055 65.2573 5.21537 64.5158 5.72459C64.5158 5.9117 64.5158 6.0988 64.5158 6.29631C64.5217 9.6942 63.1544 12.9523 60.7204 15.3403C58.2864 17.7283 54.9892 19.0463 51.5681 18.999C49.5903 19.0055 47.6378 18.5572 45.8636 17.6892C45.7679 17.6477 45.7062 17.5538 45.7066 17.4501V17.3358C45.7066 17.1865 45.8284 17.0655 45.9787 17.0655C47.9229 17.0019 49.7977 16.3328 51.3378 15.1528C49.5781 15.1177 47.9948 14.0829 47.2662 12.4917C47.2294 12.4048 47.2408 12.3051 47.2964 12.2287C47.352 12.1523 47.4437 12.1101 47.5383 12.1175C48.0731 12.1709 48.6133 12.1215 49.1293 11.972C47.1867 11.5717 45.7271 9.97083 45.5182 8.01148C45.5107 7.91749 45.5532 7.82644 45.6301 7.77124C45.7071 7.71604 45.8075 7.70466 45.895 7.74121C46.4163 7.96955 46.979 8.08981 47.5488 8.09464C45.8466 6.98564 45.1114 4.87628 45.7589 2.95952C45.8258 2.77327 45.9863 2.63568 46.1817 2.59731C46.377 2.55894 46.5782 2.62546 46.7114 2.77241C49.0084 5.1991 52.1644 6.64515 55.5142 6.80566C55.4284 6.4658 55.3862 6.11654 55.3886 5.76617C55.4199 3.92899 56.565 2.29239 58.2879 1.62257C60.0108 0.952752 61.9704 1.38227 63.2493 2.71004C64.1211 2.54519 64.9639 2.25451 65.7509 1.84726C65.8085 1.81153 65.8817 1.81153 65.9393 1.84726C65.9753 1.90451 65.9753 1.97712 65.9393 2.03437C65.5581 2.9009 64.9141 3.62768 64.0971 4.11336C64.8125 4.03101 65.5154 3.86349 66.1905 3.61441C66.2474 3.576 66.3221 3.576 66.3789 3.61441C66.4265 3.63603 66.4621 3.67739 66.4763 3.72746C66.4904 3.77754 66.4816 3.83124 66.4522 3.87428Z" fill="white"/>
<path id="Icon-color_2" d="M106.412 0H97.9675C95.0526 0 92.6897 2.36294 92.6897 5.27778V13.7222C92.6897 16.6371 95.0526 19 97.9675 19H106.412C109.327 19 111.69 16.6371 111.69 13.7222V5.27778C111.69 2.36294 109.327 0 106.412 0ZM109.842 13.7222C109.837 15.6145 108.304 17.147 106.412 17.1528H97.9675C96.0752 17.147 94.5427 15.6145 94.5369 13.7222V5.27778C94.5427 3.38554 96.0752 1.85302 97.9675 1.84722H106.412C108.304 1.85302 109.837 3.38554 109.842 5.27778V13.7222ZM108.259 4.48611C108.259 5.06908 107.787 5.54167 107.204 5.54167C106.621 5.54167 106.148 5.06908 106.148 4.48611C106.148 3.90314 106.621 3.43056 107.204 3.43056C107.787 3.43056 108.259 3.90314 108.259 4.48611ZM102.19 4.75C99.5663 4.75 97.4397 6.87665 97.4397 9.5C97.4397 12.1234 99.5663 14.25 102.19 14.25C104.813 14.25 106.94 12.1234 106.94 9.5C106.943 8.23936 106.443 7.02955 105.552 6.13814C104.66 5.24673 103.45 4.74719 102.19 4.75ZM102.19 12.4028C100.587 12.4028 99.2869 11.1032 99.2869 9.5C99.2869 7.89684 100.587 6.59722 102.19 6.59722C103.793 6.59722 105.092 7.89684 105.092 9.5C105.092 11.1032 103.793 12.4028 102.19 12.4028Z" fill="white"/>
<path id="Icon-color_3" d="M19.3103 2.11111V16.8889C19.3103 18.0548 18.3651 19 17.1992 19H13.2409C12.9494 19 12.7131 18.7637 12.7131 18.4722V12.1389H15.1831C15.4339 12.1389 15.6501 11.9624 15.7003 11.7167L16.0803 9.81667C16.096 9.73991 16.0768 9.66016 16.0278 9.59899C15.9789 9.53782 15.9053 9.50155 15.827 9.5H12.7131V6.06944C12.7131 5.9237 12.8312 5.80556 12.977 5.80556H15.6159C15.9073 5.80556 16.1436 5.56926 16.1436 5.27778V3.69444C16.1436 3.40296 15.9073 3.16667 15.6159 3.16667H12.977C11.2281 3.16667 9.8103 4.58443 9.8103 6.33333V9.5H8.51197C8.22049 9.5 7.98419 9.73629 7.98419 10.0278V11.6111C7.98419 11.9026 8.22049 12.1389 8.51197 12.1389H9.8103V18.4722C9.8103 18.7637 9.57401 19 9.28253 19H2.42141C1.25548 19 0.310303 18.0548 0.310303 16.8889V2.11111C0.310303 0.945177 1.25548 0 2.42141 0H17.1992C18.3651 0 19.3103 0.945177 19.3103 2.11111Z" fill="white"/>
</g>
</svg>
