<svg width="70" height="70" viewBox="0 0 70 70" fill="none" xmlns="http://www.w3.org/2000/svg">
<g id="ph:exam">
<path id="Vector" d="M59.0625 10.9375H10.9375C9.77718 10.9375 8.66438 11.3984 7.84391 12.2189C7.02344 13.0394 6.5625 14.1522 6.5625 15.3125V59.0625C6.56223 59.4356 6.65738 59.8025 6.8389 60.1284C7.02042 60.4544 7.28229 60.7284 7.5996 60.9246C7.91691 61.1208 8.27912 61.2326 8.65181 61.2494C9.0245 61.2661 9.39528 61.1873 9.72891 61.0203L17.5 57.132L25.2711 61.0203C25.575 61.1724 25.9102 61.2516 26.25 61.2516C26.5898 61.2516 26.925 61.1724 27.2289 61.0203L35 57.132L42.7711 61.0203C43.075 61.1724 43.4102 61.2516 43.75 61.2516C44.0898 61.2516 44.425 61.1724 44.7289 61.0203L52.5 57.132L60.2711 61.0203C60.6047 61.1873 60.9755 61.2661 61.3482 61.2494C61.7209 61.2326 62.0831 61.1208 62.4004 60.9246C62.7177 60.7284 62.9796 60.4544 63.1611 60.1284C63.3426 59.8025 63.4378 59.4356 63.4375 59.0625V15.3125C63.4375 14.1522 62.9766 13.0394 62.1561 12.2189C61.3356 11.3984 60.2228 10.9375 59.0625 10.9375ZM59.0625 55.5242L53.4789 52.7297C53.175 52.5776 52.8398 52.4984 52.5 52.4984C52.1602 52.4984 51.825 52.5776 51.5211 52.7297L43.75 56.618L35.9789 52.7297C35.675 52.5776 35.3398 52.4984 35 52.4984C34.6602 52.4984 34.325 52.5776 34.0211 52.7297L26.25 56.618L18.4789 52.7297C18.175 52.5776 17.8398 52.4984 17.5 52.4984C17.1602 52.4984 16.825 52.5776 16.5211 52.7297L10.9375 55.5242V15.3125H59.0625V55.5242ZM16.5211 45.7078C16.7782 45.8366 17.0581 45.9134 17.3449 45.9338C17.6316 45.9543 17.9196 45.918 18.1924 45.8271C18.4651 45.7362 18.7173 45.5924 18.9344 45.404C19.1515 45.2155 19.3294 44.9861 19.4578 44.7289L21.0383 41.5625H31.4617L33.0422 44.7289C33.1707 44.986 33.3487 45.2153 33.5658 45.4036C33.783 45.592 34.0351 45.7357 34.3078 45.8266C34.5805 45.9175 34.8684 45.9538 35.1552 45.9334C35.4419 45.913 35.7218 45.8364 35.9789 45.7078C36.236 45.5793 36.4653 45.4013 36.6536 45.1842C36.842 44.967 36.9857 44.7149 37.0766 44.4422C37.1675 44.1695 37.2038 43.8816 37.1834 43.5948C37.163 43.3081 37.0864 43.0282 36.9578 42.7711L28.2078 25.2711C28.0264 24.9071 27.7471 24.6009 27.4012 24.3868C27.0554 24.1728 26.6567 24.0594 26.25 24.0594C25.8433 24.0594 25.4446 24.1728 25.0988 24.3868C24.7529 24.6009 24.4736 24.9071 24.2922 25.2711L15.5422 42.7711C15.4134 43.0282 15.3366 43.3081 15.3162 43.5949C15.2957 43.8816 15.332 44.1696 15.4229 44.4424C15.5138 44.7151 15.6576 44.9673 15.846 45.1844C16.0345 45.4015 16.2639 45.5794 16.5211 45.7078ZM26.25 31.1418L29.2742 37.1875H23.2258L26.25 31.1418ZM37.1875 35C37.1875 34.4198 37.418 33.8634 37.8282 33.4532C38.2384 33.043 38.7948 32.8125 39.375 32.8125H43.75V28.4375C43.75 27.8573 43.9805 27.3009 44.3907 26.8907C44.8009 26.4805 45.3573 26.25 45.9375 26.25C46.5177 26.25 47.0741 26.4805 47.4843 26.8907C47.8945 27.3009 48.125 27.8573 48.125 28.4375V32.8125H52.5C53.0802 32.8125 53.6366 33.043 54.0468 33.4532C54.457 33.8634 54.6875 34.4198 54.6875 35C54.6875 35.5802 54.457 36.1366 54.0468 36.5468C53.6366 36.957 53.0802 37.1875 52.5 37.1875H48.125V41.5625C48.125 42.1427 47.8945 42.6991 47.4843 43.1093C47.0741 43.5195 46.5177 43.75 45.9375 43.75C45.3573 43.75 44.8009 43.5195 44.3907 43.1093C43.9805 42.6991 43.75 42.1427 43.75 41.5625V37.1875H39.375C38.7948 37.1875 38.2384 36.957 37.8282 36.5468C37.418 36.1366 37.1875 35.5802 37.1875 35Z" fill="#0F0400"/>
</g>
</svg>
